<svg width="55" height="43" viewBox="0 0 55 43" fill="none" xmlns="http://www.w3.org/2000/svg">
<path d="M3.875 3.875V34.875C3.875 35.9027 4.28326 36.8883 5.00996 37.615C5.73666 38.3417 6.72229 38.75 7.75 38.75H46.5C47.5277 38.75 48.5133 38.3417 49.24 37.615C49.9667 36.8883 50.375 35.9027 50.375 34.875V3.875H3.875ZM3.875 0H50.375C51.4027 0 52.3883 0.408258 53.115 1.13496C53.8417 1.86166 54.25 2.84729 54.25 3.875V34.875C54.25 36.9304 53.4335 38.9017 51.9801 40.3551C50.5267 41.8085 48.5554 42.625 46.5 42.625H7.75C5.69457 42.625 3.72333 41.8085 2.26992 40.3551C0.816516 38.9017 0 36.9304 0 34.875V3.875C0 2.84729 0.408258 1.86166 1.13496 1.13496C1.86166 0.408258 2.84729 0 3.875 0Z" fill="#DEDAD1"/>
<path d="M50.8594 3.875L35.8748 21.0025C34.7836 22.2498 33.4384 23.2495 31.9294 23.9344C30.4203 24.6193 28.7822 24.9736 27.125 24.9736C25.4678 24.9736 23.8297 24.6193 22.3206 23.9344C20.8116 23.2495 19.4664 22.2498 18.3753 21.0025L3.39062 3.875H50.8594ZM8.5405 3.875L21.2892 18.4489C22.0167 19.2806 22.9135 19.9473 23.9197 20.404C24.9259 20.8607 26.0181 21.097 27.1231 21.097C28.228 21.097 29.3202 20.8607 30.3264 20.404C31.3326 19.9473 32.2295 19.2806 32.9569 18.4489L45.7095 3.875H8.5405Z" fill="#DEDAD1"/>
</svg>
